<!-- Generator: Adobe Illustrator 23.1.0, SVG Export Plug-In  -->
<svg version="1.1" xmlns="http://www.w3.org/2000/svg" xmlns:xlink="http://www.w3.org/1999/xlink" x="0px" y="0px"
	 width="144.01px" height="246.12px" viewBox="0 0 144.01 246.12" style="enable-background:new 0 0 144.01 246.12;"
	 xml:space="preserve">
<style type="text/css">
	.st0{fill-rule:evenodd;clip-rule:evenodd;fill:#E9B308;}
</style>
<defs>
</defs>
<g>
	<g>
		<path class="st0" d="M84.01,1.12v8h60c-0.04-0.93-0.23-2.56-1.17-4.3c-1.4-2.59-3.58-3.79-4.43-4.2
			C119.9-0.21,102.17-0.04,84.01,1.12z"/>
	</g>
</g>
<g>
	<g>
		<path class="st0" d="M32.01,8.12c14.82,1,29.82,1.33,45,1v-9c-13.18-0.33-26.18,0.01-39,1C34.58,2.22,32.58,4.55,32.01,8.12z"/>
	</g>
</g>
<g>
	<g>
		<path class="st0" d="M143.01,17.12c-8,0-16,0-24,0c1.71,9.25,6.38,16.75,14,22.5c2.95,2.64,6.28,4.47,10,5.5
			C143.01,35.79,143.01,26.46,143.01,17.12z"/>
	</g>
</g>
<g>
	<g>
		<path class="st0" d="M111.01,17.12c-8.67,0-17.33,0-26,0c1.76,74.01,3.92,148.01,6.5,222c0.79,3.08,2.62,5.25,5.5,6.5
			c11,0.67,22,0.67,33,0c2.5-1.17,4.33-3,5.5-5.5c2.51-61.99,4.51-123.99,6-186c-12.28-5.95-21.61-14.95-28-27
			C112.36,23.86,111.53,20.52,111.01,17.12z"/>
	</g>
</g>
<g>
	<g>
		<path class="st0" d="M80.01,170.12c0.99-6.48,1.32-13.15,1-20c0.1-10.69-0.4-21.36-1.5-32c-8.54-7.54-16.7-15.37-24.5-23.5
			C62.5,83.8,70,72.97,77.51,62.12c-0.05-14.99-0.22-29.99-0.5-45c-11.33,0-22.67,0-34,0c-4.16,12.33-11.83,21.83-23,28.5
			c-1.54,1.58-2.71,3.41-3.5,5.5c-5.14,15.08-10.47,30.08-16,45c-1.6,7.52,0.56,13.69,6.5,18.5
			C31.53,132.99,55.86,151.49,80.01,170.12z"/>
	</g>
</g>
<g>
	<g>
		<path class="st0" d="M35.01,17.12c-2.29-0.26-4.46,0.08-6.5,1c-2.3,5.24-3.97,10.57-5,16C28.77,29.38,32.6,23.71,35.01,17.12z"/>
	</g>
</g>
</svg>
